<svg width="24" height="24" viewBox="0 0 24 24" fill="none" xmlns="http://www.w3.org/2000/svg">
  <path d="M23.638 14.904c-1.602 6.43-8.113 10.34-14.542 8.736C2.67 22.05-1.244 15.525.362 9.105 1.962 2.67 8.475-1.243 14.9.358c6.43 1.605 10.342 8.115 8.738 14.548v-.002zm-6.35-4.613c.24-1.59-.974-2.45-2.64-3.03l.54-2.153-1.315-.33-.525 2.107c-.345-.087-.705-.17-1.064-.25l.53-2.104-1.32-.33-.54 2.15c-.285-.065-.565-.13-.84-.2l.003-.01-1.815-.453-.35 1.406s.975.225.955.238c.535.136.63.495.615.78l-.61 2.45c.037.01.084.024.136.046l-.14-.037-.83 3.33c-.062.15-.232.38-.608.294.015.022-.955-.24-.955-.24L6 15.484l1.71.427c.32.08.63.163.938.242l-.545 2.18 1.32.33.54-2.17c.36.1.705.19 1.05.273l-.51 2.154 1.32.33.545-2.19c2.24.427 3.93.255 4.64-1.774.568-1.637-.03-2.58-1.217-3.196.854-.193 1.5-.76 1.68-1.93h.01zm-3.01 4.22c-.404 1.64-3.157.75-4.05.53l.72-2.887c.896.22 3.757.67 3.33 2.357zm.41-4.24c-.37 1.49-2.662.735-3.405.55l.654-2.617c.744.186 3.137.535 2.75 2.067z" fill="#F7931A" />
</svg> 