<svg width="16" height="16" viewBox="0 0 16 16" fill="none" xmlns="http://www.w3.org/2000/svg">
    <path d="M8 0C3.58172 0 0 3.58172 0 8C0 12.4183 3.58172 16 8 16C12.4183 16 16 12.4183 16 8C16 3.58172 12.4183 0 8 0ZM11.7071 6.70711L8.70711 9.70711C8.31658 10.0976 7.68342 10.0976 7.29289 9.70711L4.29289 6.70711C3.90237 6.31658 3.90237 5.68342 4.29289 5.29289C4.68342 4.90237 5.31658 4.90237 5.70711 5.29289L8 7.58579L10.2929 5.29289C10.6834 4.90237 11.3166 4.90237 11.7071 5.29289C12.0976 5.68342 12.0976 6.31658 11.7071 6.70711Z" fill="#7C3AED"/>
</svg> 