<svg width="20" height="20" viewBox="0 0 20 20" fill="none" xmlns="http://www.w3.org/2000/svg">
    <path d="M17.0513 2.93C15.2263 1.105 12.7929 0.0983333 10.2096 0.0983333C4.86625 0.0983333 0.519583 4.445 0.519583 9.78833C0.519583 11.5133 0.969583 13.1967 1.81625 14.6717L0.416667 19.0983L4.94625 17.7233C6.36625 18.495 7.97292 18.9033 9.61125 18.9033H9.61625C14.9579 18.9033 19.4167 14.5567 19.4167 9.21333C19.4167 6.63 18.3763 4.245 17.0513 2.93ZM10.2096 17.3283C8.74625 17.3283 7.31625 16.9383 6.06625 16.2033L5.76625 16.02L2.99625 16.8533L3.84625 14.1617L3.64625 13.8517C2.83625 12.5567 2.40958 11.0483 2.40958 9.78833C2.40958 5.37 5.79125 1.67333 10.2146 1.67333C12.3596 1.67333 14.3763 2.51 15.8929 4.02667C17.4096 5.54333 18.1846 7.56 18.1813 9.70667C18.1813 14.13 14.6279 17.3283 10.2096 17.3283ZM14.4679 11.7467C14.2179 11.62 13.0513 11.0483 12.8179 10.9633C12.5846 10.8783 12.4179 10.8367 12.2513 11.0867C12.0846 11.3367 11.6346 11.8667 11.4846 12.0333C11.3346 12.2 11.1846 12.2208 10.9346 12.095C10.6846 11.9683 9.91625 11.72 9.01625 10.92C8.31625 10.2967 7.84625 9.52833 7.69625 9.27833C7.54625 9.02833 7.68125 8.88833 7.81125 8.76167C7.92625 8.64667 8.06625 8.46167 8.19625 8.31167C8.32625 8.16167 8.36792 8.05667 8.45292 7.89C8.53792 7.72333 8.49625 7.57333 8.43125 7.44667C8.36625 7.32 7.89625 6.15333 7.68792 5.65333C7.48625 5.16833 7.27792 5.23333 7.11958 5.22667C6.96958 5.22 6.80292 5.22 6.63625 5.22C6.46958 5.22 6.19625 5.285 5.96292 5.535C5.72958 5.785 5.11625 6.35667 5.11625 7.52333C5.11625 8.69 5.98292 9.815 6.11292 9.98167C6.24292 10.1483 7.84625 12.62 10.3013 13.6533C10.8846 13.9033 11.3429 14.0533 11.7013 14.1667C12.2846 14.3533 12.8179 14.3283 13.2429 14.2617C13.7179 14.1867 14.6763 13.6783 14.8846 13.095C15.0929 12.5117 15.0929 12.0117 15.0279 11.9033C14.9629 11.795 14.7179 11.8733 14.4679 11.7467Z" fill="white"/>
</svg> 